<?xml version="1.0" encoding="utf-8"?>
<!-- Generator: Adobe Illustrator 24.3.0, SVG Export Plug-In . SVG Version: 6.00 Build 0)  -->
<svg version="1.1" id="Layer_1" xmlns="http://www.w3.org/2000/svg" xmlns:xlink="http://www.w3.org/1999/xlink" x="0px" y="0px"
	 viewBox="0 0 60 34.5" style="enable-background:new 0 0 60 34.5;" xml:space="preserve">
<style type="text/css">
	.st0{fill:#3F59A7;}
</style>
<g>
	<g>
		<path class="st0" d="M21.39,16.53v5.94c0,0,5.76-0.01,8.11-0.01c-1.27,3.85-3.25,5.95-8.11,5.95c-4.92,0-8.76-3.99-8.76-8.91
			c0-4.92,3.84-8.91,8.76-8.91c2.6,0,4.28,0.91,5.82,2.19c1.23-1.23,1.13-1.41,4.27-4.37c-2.66-2.43-6.21-3.9-10.09-3.9
			c-8.28,0-15,6.72-15,15c0,8.28,6.72,15,15,15c12.38,0,15.41-10.78,14.41-17.97C32.86,16.53,21.39,16.53,21.39,16.53z M48.42,16.83
			v-5.2H44.7v5.2h-5.35v3.71h5.35v5.35h3.71v-5.35h5.2v-3.71H48.42z"/>
	</g>
</g>
</svg>
