<?xml version="1.0" encoding="utf-8"?>
<!-- Generator: Adobe Illustrator 24.3.0, SVG Export Plug-In . SVG Version: 6.00 Build 0)  -->
<svg version="1.1" id="Layer_1" xmlns="http://www.w3.org/2000/svg" xmlns:xlink="http://www.w3.org/1999/xlink" x="0px" y="0px"
	 viewBox="0 0 84.81 127.51" style="enable-background:new 0 0 84.81 127.51;" xml:space="preserve">
<style type="text/css">
	.st0{fill:#3F59A7;}
</style>
<path class="st0" d="M84.11,82.52c-0.83-0.71-2.08-0.6-2.79,0.23L67.63,98.81l-8.75-6.93c-0.85-0.68-2.1-0.54-2.78,0.31
	s-0.54,2.09,0.32,2.77l10.25,8.12c0.36,0.29,0.8,0.43,1.23,0.43c0.56,0,1.12-0.24,1.51-0.69l14.93-17.52
	C85.05,84.46,84.95,83.22,84.11,82.52z M70.24,115.7c-1.09,0-1.98,0.88-1.98,1.97c0,3.26-2.66,5.91-5.93,5.91H9.88
	c-3.27,0-5.93-2.65-5.93-5.91V9.84c0-3.26,2.66-5.91,5.93-5.91h52.45c3.27,0,5.93,2.65,5.93,5.91V70.1c0,1.09,0.89,1.97,1.98,1.97
	c1.09,0,1.98-0.88,1.98-1.97V36.49c1.51-0.3,2.64-1.63,2.64-3.22v-8.61c0-1.59-1.13-2.91-2.64-3.22V9.84c0-5.43-4.43-9.84-9.88-9.84
	H9.88C4.43,0,0,4.41,0,9.84v107.83c0,5.43,4.43,9.84,9.88,9.84h52.45c5.02,0,9.17-3.74,9.8-8.57c0.05-0.18,0.08-0.37,0.08-0.56
	v-0.71C72.22,116.58,71.34,115.7,70.24,115.7z M46,10.03c1.09,0,1.98-0.88,1.98-1.97S47.09,6.09,46,6.09H26.23
	c-1.09,0-1.98,0.88-1.98,1.97s0.89,1.97,1.98,1.97H46z M30.62,116.77c0,3.02,2.47,5.47,5.5,5.47c3.03,0,5.5-2.46,5.5-5.47
	c0-3.02-2.47-5.47-5.5-5.47C33.08,111.3,30.62,113.75,30.62,116.77z M37.65,116.77c0,0.85-0.69,1.54-1.54,1.54s-1.54-0.69-1.54-1.54
	s0.69-1.53,1.54-1.53S37.65,115.92,37.65,116.77z M59.73,71.94c1.2,0,2.18-0.97,2.18-2.17V25.71c0-3.67-3.54-6.88-7.57-6.88H18.6
	c-4.17,0-7.57,3.38-7.57,7.54v73.48c0,4.16,3.39,7.54,7.57,7.54h31.19c1.2,0,2.18-0.97,2.18-2.17s-0.98-2.17-2.18-2.17H18.6
	c-1.77,0-3.21-1.43-3.21-3.19V26.36c0-1.76,1.44-3.19,3.21-3.19h35.74c1.86,0,3.21,1.52,3.21,2.54v44.07
	C57.55,70.97,58.53,71.94,59.73,71.94z"/>
</svg>
